<svg version="1.1" id="Layer_1" xmlns="http://www.w3.org/2000/svg" xmlns:xlink="http://www.w3.org/1999/xlink" x="0px" y="0px"
	 width="100%" viewBox="0 0 1563 537" enable-background="new 0 0 1563 537" xml:space="preserve">
<path fill="#7CA982" opacity="1.000000" stroke="none" 
	d="
M1462.000000,538.000000 
	C974.724548,538.000000 487.949066,538.000000 1.086792,538.000000 
	C1.086792,359.079163 1.086792,180.158295 1.086792,1.118703 
	C522.000000,1.118703 1043.000000,1.118703 1563.993530,1.118703 
	C1563.993530,180.051178 1563.993530,359.025604 1563.990234,538.000000 
	C1530.158081,538.000000 1496.328979,538.000000 1462.000000,538.000000 
M818.890076,263.342346 
	C816.286377,261.859192 813.799011,260.101044 811.058289,258.942047 
	C800.923462,254.656265 787.823303,255.859299 781.669922,267.730347 
	C775.569153,279.499634 773.080078,291.999298 775.757324,305.003479 
	C780.051941,325.864105 800.560242,333.575073 818.099060,321.292145 
	C819.164307,320.546173 820.323242,319.934113 822.013306,318.912231 
	C823.446716,327.032593 829.448975,325.793610 834.924927,325.743195 
	C839.591187,325.700195 844.265442,325.572845 848.922424,325.784180 
	C852.401245,325.942047 853.636169,324.604889 853.625916,321.157257 
	C853.549316,295.490997 853.540100,269.824097 853.659973,244.158127 
	C853.676697,240.577271 852.301453,239.553833 848.944336,239.618134 
	C840.780701,239.774445 832.611084,239.743179 824.445984,239.632614 
	C821.556885,239.593491 820.169373,240.436111 820.270996,243.593262 
	C820.474548,249.918655 820.406555,256.252777 819.995361,263.057465 
	C819.848694,263.220276 819.701965,263.383057 818.890076,263.342346 
M612.871582,311.488647 
	C612.882385,314.820465 612.617920,318.187897 613.042297,321.466187 
	C613.207153,322.740387 614.897095,324.792969 615.942322,324.824219 
	C624.898193,325.092377 633.865479,324.978027 643.214478,324.978027 
	C643.356140,322.698212 643.556580,320.906647 643.563782,319.114288 
	C643.599121,310.284393 643.525574,301.453766 643.615479,292.624634 
	C643.648804,289.349976 643.271973,284.898529 647.744202,284.836212 
	C652.708191,284.766998 652.021118,289.468262 652.068665,292.828369 
	C652.188721,301.323486 652.083008,309.821564 652.132507,318.318085 
	C652.144775,320.420471 652.403809,322.521393 652.556335,324.723816 
	C663.702332,324.723816 674.305176,324.723816 685.315247,324.723816 
	C685.451111,322.851410 685.665649,321.231384 685.670349,319.610779 
	C685.697815,310.114502 685.883850,300.611664 685.592529,291.124054 
	C685.420044,285.504547 685.152771,279.729614 683.740540,274.335449 
	C679.030151,256.343231 658.634888,251.034515 645.338379,264.110657 
	C643.744812,265.677826 642.455566,267.554504 640.905029,269.433441 
	C635.034729,262.505219 630.050171,256.579254 620.991821,256.625580 
	C611.859863,256.672333 607.845947,263.847534 602.223938,269.625824 
	C601.322266,266.661407 600.793335,264.204010 599.799377,261.951843 
	C599.287903,260.793030 597.966431,259.190216 596.979370,259.167603 
	C587.725281,258.955231 578.464417,259.041565 568.392090,259.041565 
	C568.392090,277.547638 568.392090,295.344086 568.392090,313.140533 
	C567.930908,313.202576 567.469788,313.264618 567.008606,313.326691 
	C566.295959,311.385468 565.515320,309.466187 564.881165,307.499664 
	C558.338562,287.213379 551.762817,266.937439 545.350037,246.610077 
	C544.280579,243.220276 542.660828,241.851074 538.957520,241.945297 
	C528.301453,242.216370 517.633789,242.175980 506.973419,242.041351 
	C503.869415,242.002151 502.180908,242.839752 501.188934,246.002014 
	C493.364594,270.944855 485.367065,295.833313 477.468048,320.752869 
	C476.901703,322.539612 476.693146,324.439758 476.197021,326.884338 
	C484.443787,326.884338 491.903320,326.885712 499.362823,326.883942 
	C507.690399,326.881989 507.872223,326.925629 509.879974,318.786438 
	C510.798309,315.063568 512.433411,313.517212 516.363708,313.809967 
	C520.669312,314.130707 525.041992,314.097626 529.345215,313.737579 
	C533.153137,313.419006 534.638672,314.982330 535.438171,318.515961 
	C537.257263,326.555969 537.403809,326.527527 545.750244,326.728729 
	C547.248901,326.764862 548.750732,326.794769 550.248108,326.741974 
	C566.336914,326.174408 582.421936,325.419434 598.515503,325.123596 
	C602.788452,325.045105 604.407227,324.091461 604.235779,319.561005 
	C603.902039,310.743744 604.118958,301.904541 604.169128,293.074799 
	C604.178528,291.424835 604.053772,289.562042 604.754395,288.186340 
	C605.489441,286.743042 607.013123,285.092194 608.439209,284.818207 
	C609.437195,284.626465 611.254517,286.371796 611.967346,287.660522 
	C612.719788,289.021118 612.793396,290.863312 612.819336,292.500580 
	C612.914307,298.496887 612.865906,304.495453 612.871582,311.488647 
M1289.231201,305.601288 
	C1287.593628,310.060730 1285.956177,314.520172 1283.815796,320.349213 
	C1282.773071,318.563904 1282.457886,317.969116 1282.092529,317.406921 
	C1275.650391,307.495453 1269.068604,297.669556 1262.905884,287.587494 
	C1262.027588,286.150604 1262.522705,283.096954 1263.489014,281.435394 
	C1269.928589,270.363953 1276.686523,259.477997 1283.294434,248.503754 
	C1284.357910,246.737503 1285.189697,244.831619 1286.284180,242.685165 
	C1276.147461,242.685165 1266.731934,242.731125 1257.317261,242.660858 
	C1253.903809,242.635361 1251.882935,244.042526 1250.538574,247.263870 
	C1248.191895,252.886276 1245.430298,258.335541 1242.274170,265.070831 
	C1239.775513,259.432800 1237.580933,255.014786 1235.843994,250.423599 
	C1233.750000,244.888580 1230.773315,241.351776 1224.100830,242.525192 
	C1221.549683,242.973846 1218.802124,242.189407 1216.141724,242.156921 
	C1210.280029,242.085373 1204.416748,242.134689 1197.924561,242.134689 
	C1205.470215,255.502975 1212.306396,267.864258 1219.430176,280.057556 
	C1221.185059,283.061188 1221.265137,285.236786 1219.312866,288.176697 
	C1212.313354,298.718018 1205.567139,309.428223 1198.791016,320.116272 
	C1197.695923,321.843475 1196.935547,323.782806 1195.455566,326.760620 
	C1204.335083,326.760620 1212.172363,326.078735 1219.830933,326.956146 
	C1227.201172,327.800537 1230.888306,324.784485 1233.452026,318.512817 
	C1235.362915,313.838348 1237.882202,309.412567 1240.724487,303.677460 
	C1244.287231,311.006012 1247.336792,317.047546 1250.161255,323.192505 
	C1251.446167,325.988037 1253.270142,327.140808 1256.368286,327.054535 
	C1262.859009,326.873688 1269.363525,326.824921 1275.850708,327.053223 
	C1278.544312,327.148102 1281.314331,327.793243 1283.866333,328.702484 
	C1292.602173,331.814911 1300.692749,328.403381 1303.646362,319.793854 
	C1312.235596,294.757965 1320.692993,269.676788 1329.150513,244.595993 
	C1329.693115,242.986588 1329.797729,241.229477 1330.207031,238.987106 
	C1325.969849,238.987106 1322.468994,239.271240 1319.035156,238.913422 
	C1314.969360,238.489746 1313.190308,240.158356 1311.847290,243.911163 
	C1304.555542,264.286102 1296.991699,284.563690 1289.231201,305.601288 
M1194.187622,255.125931 
	C1194.238403,252.460602 1194.076904,249.770081 1194.389282,247.135788 
	C1194.865234,243.122238 1193.232910,241.850510 1189.324585,241.911880 
	C1181.667969,242.032074 1173.992554,241.979141 1166.349609,241.552170 
	C1161.581665,241.285797 1159.998169,242.754410 1160.113770,247.690292 
	C1160.480347,263.340729 1160.403687,279.002747 1160.370361,294.660034 
	C1160.365112,297.109650 1160.265625,299.872314 1159.150269,301.910400 
	C1158.200806,303.645233 1155.665039,305.609680 1153.942261,305.511932 
	C1152.249390,305.415894 1150.056030,303.132019 1149.249023,301.295502 
	C1148.296509,299.128510 1148.398926,296.412262 1148.385498,293.932251 
	C1148.302856,278.607971 1148.217529,263.282196 1148.361938,247.959091 
	C1148.401733,243.738586 1147.077515,241.914093 1142.646606,242.072876 
	C1135.492310,242.329269 1128.313599,242.368088 1121.161987,242.082291 
	C1116.431152,241.893219 1115.179199,243.935287 1115.226196,248.297394 
	C1115.394897,263.957520 1115.304688,279.620422 1115.313721,295.282288 
	C1115.322388,310.460815 1123.217163,321.364868 1137.692749,325.959625 
	C1147.576660,329.096893 1157.712158,329.431183 1167.820679,327.541656 
	C1185.901123,324.161987 1193.858887,314.326813 1193.911011,296.029694 
	C1193.948975,282.704956 1194.083740,269.380524 1194.187622,255.125931 
M1366.331299,290.468536 
	C1366.315918,276.315674 1366.204468,262.161865 1366.344238,248.010529 
	C1366.385620,243.812485 1365.001465,241.946487 1360.609985,242.079971 
	C1353.456177,242.297363 1346.282715,242.348511 1339.133423,242.067612 
	C1334.387207,241.881104 1333.196899,243.964966 1333.244629,248.314392 
	C1333.416138,263.967560 1333.299683,279.623718 1333.319824,295.278717 
	C1333.339111,310.313660 1340.946289,321.068329 1355.195435,325.791595 
	C1365.359131,329.160675 1375.811890,329.484222 1386.260010,327.413391 
	C1404.109131,323.875671 1411.821899,314.280396 1411.922729,296.097015 
	C1412.013184,279.782104 1412.093140,263.465515 1412.428223,247.154800 
	C1412.509399,243.203003 1411.260254,241.842575 1407.331299,241.907730 
	C1399.677856,242.034622 1392.005371,241.993134 1384.365479,241.572708 
	C1379.598267,241.310364 1377.991821,242.786270 1378.107178,247.715652 
	C1378.472900,263.358429 1378.403564,279.012268 1378.398560,294.661835 
	C1378.397827,296.957214 1378.439941,299.609070 1377.359497,301.448303 
	C1376.259399,303.321228 1373.739014,305.570343 1371.948730,305.481232 
	C1370.216553,305.395020 1367.808472,302.809509 1367.159424,300.839935 
	C1366.202515,297.935883 1366.541504,294.604828 1366.331299,290.468536 
M307.635406,269.645599 
	C309.699402,271.176941 311.702332,273.923279 313.837860,274.030579 
	C323.399200,274.510986 332.998322,274.239624 344.211029,274.239624 
	C342.288147,270.483307 341.678070,267.573334 339.886902,266.155090 
	C336.311340,263.323975 332.344574,260.187439 328.074493,259.211853 
	C320.848022,257.560822 313.273163,257.076782 305.822144,256.852020 
	C295.114960,256.528992 284.559998,257.918945 274.521790,262.015198 
	C266.208862,265.407379 263.617828,272.385590 263.530182,280.517609 
	C263.443909,288.517639 267.443909,294.360840 274.947296,297.017059 
	C280.231628,298.887817 285.861847,299.862122 291.398376,300.918213 
	C297.427826,302.068298 303.601898,302.545898 309.545776,304.000031 
	C311.098602,304.379913 313.149475,307.458374 312.928955,309.006531 
	C312.713135,310.521790 310.050598,312.417358 308.180481,312.812012 
	C304.607117,313.566162 301.294037,312.549622 299.302673,308.861511 
	C298.786804,307.906158 297.445923,306.795074 296.469879,306.781677 
	C285.710541,306.633820 274.948395,306.688751 264.187012,306.688751 
	C263.789703,307.160980 263.392426,307.633209 262.995117,308.105438 
	C264.885437,311.191864 266.274811,314.803650 268.806366,317.217560 
	C271.358673,319.651306 274.873077,321.383850 278.263702,322.578369 
	C294.597229,328.332642 311.192749,328.597046 327.871033,324.094666 
	C334.173920,322.393188 339.300812,318.844757 343.447784,313.794006 
	C350.954193,304.651794 350.356049,287.472809 333.303253,283.140900 
	C331.213776,282.610107 329.066284,282.268005 326.926453,281.982574 
	C319.675812,281.015167 312.393646,280.257446 305.171326,279.116974 
	C302.091248,278.630585 299.907990,276.603027 300.573608,273.138062 
	C301.221771,269.763885 303.550323,268.529419 307.635406,269.645599 
M385.821533,326.936493 
	C390.483582,326.952789 395.167938,327.270050 399.803253,326.926117 
	C411.359680,326.068665 422.629669,324.423950 431.265900,315.305023 
	C439.963715,306.121063 440.215820,287.100830 421.752594,283.124481 
	C414.468658,281.555817 406.942932,281.128204 399.543732,280.066376 
	C397.101288,279.715912 394.544342,279.372345 392.335938,278.371826 
	C389.221649,276.960907 388.508453,274.137817 390.287628,271.272797 
	C392.166107,268.247833 395.940521,268.030090 397.547119,270.283539 
	C401.103973,275.272583 405.823425,274.319580 410.515686,274.348755 
	C417.564392,274.392609 424.613617,274.360168 431.662598,274.360168 
	C431.986938,273.692535 432.311310,273.024872 432.635651,272.357239 
	C431.157135,269.954254 430.182037,266.888214 428.086853,265.297455 
	C424.593292,262.645020 420.595245,259.954987 416.426086,259.052643 
	C409.500183,257.553650 402.212067,256.542267 395.182739,256.990692 
	C385.153564,257.630554 374.998322,258.938629 365.309875,261.514526 
	C356.042938,263.978363 352.406494,270.721649 352.478729,280.648743 
	C352.539246,288.967560 356.994202,294.999847 365.874054,297.807770 
	C370.599243,299.301971 375.569672,300.079254 380.471313,300.941833 
	C386.352386,301.976837 392.338593,302.493652 398.145264,303.820984 
	C399.745789,304.186798 401.357880,306.458923 402.014709,308.212219 
	C402.369812,309.160126 401.050293,311.337616 399.909515,312.127563 
	C396.833649,314.257538 390.657471,313.281708 389.230896,309.984650 
	C387.673431,306.385101 385.199463,306.658203 382.389771,306.675385 
	C379.892334,306.690674 377.394714,306.681793 374.897186,306.681946 
	C367.667786,306.682465 360.438385,306.682159 352.839050,306.682159 
	C353.283630,314.808319 357.901855,318.887299 363.801910,321.068329 
	C370.618652,323.588196 377.849365,324.988190 385.821533,326.936493 
M905.466125,257.060852 
	C901.473816,257.042480 897.473999,256.857025 893.490540,257.035614 
	C878.895935,257.689789 867.238892,263.194275 859.973267,276.679749 
	C853.333862,289.002899 857.162598,309.156830 868.238037,317.651947 
	C883.563293,329.406891 905.757874,330.405609 922.798584,320.285461 
	C934.416016,313.386078 938.891479,302.851685 938.164917,289.934174 
	C937.475708,277.681458 932.416626,267.707977 920.803467,262.274414 
	C916.178589,260.110504 911.155151,258.798615 905.466125,257.060852 
M699.787170,282.324280 
	C706.113708,282.327271 712.445190,282.179504 718.764893,282.388947 
	C722.649902,282.517670 725.516785,282.258087 725.944702,277.262634 
	C726.067932,275.823578 728.999268,273.342987 730.205017,273.578949 
	C732.018677,273.933838 734.274231,275.982971 734.883972,277.800812 
	C736.757751,283.386871 734.059814,287.224854 728.054016,287.957001 
	C720.963623,288.821320 713.834106,289.361267 706.725769,290.083130 
	C691.359375,291.643646 684.261780,305.500336 692.600708,317.653503 
	C696.658875,323.567810 702.431396,326.604065 709.466858,326.909698 
	C719.403137,327.341309 728.508240,324.723022 737.208984,317.902313 
	C737.324707,326.975281 743.659363,325.306183 749.062134,325.350342 
	C751.059875,325.366669 753.057800,325.355103 755.055664,325.355255 
	C759.789734,325.355621 764.523804,325.355347 767.975525,325.355347 
	C767.975525,316.417053 768.121155,308.490356 767.929993,300.571808 
	C767.773865,294.106171 767.701233,287.575531 766.722107,281.207428 
	C765.234924,271.534729 761.034119,263.028412 751.029541,259.839294 
	C734.945312,254.712204 718.848511,255.103149 703.493469,262.749817 
	C696.488831,266.238068 692.510925,274.547791 693.583984,282.325897 
	C695.295837,282.325897 697.091064,282.325897 699.787170,282.324280 
M257.079498,309.517151 
	C257.745758,306.897736 258.412018,304.278351 259.246277,300.998383 
	C249.758301,300.998383 241.282761,301.174316 232.819778,300.924622 
	C228.547775,300.798553 225.427917,301.290894 224.554749,306.357513 
	C224.317413,307.734650 222.089691,309.856995 220.987518,309.734192 
	C219.449326,309.562805 217.293991,307.849457 216.845688,306.361298 
	C215.696899,302.547699 215.344833,298.494049 214.564163,293.887054 
	C217.750534,293.887054 219.721573,293.887756 221.692612,293.886932 
	C232.856537,293.882263 244.021408,293.794678 255.183762,293.924530 
	C258.369904,293.961609 259.855469,293.004211 259.531555,289.651764 
	C258.738098,281.440857 255.982666,273.873596 250.235229,268.049927 
	C233.903641,251.501709 197.827606,253.173645 185.664017,274.131805 
	C174.545776,293.288818 182.861588,318.095642 203.897385,324.722931 
	C217.449081,328.992371 230.469162,326.946747 243.417358,322.088501 
	C249.493469,319.808746 254.239563,316.328308 257.079498,309.517151 
M168.173477,319.693268 
	C174.086731,314.162689 176.945953,307.408478 176.938660,299.253418 
	C176.924789,283.774170 177.153122,268.294769 177.269318,252.815338 
	C177.295166,249.372681 177.273132,245.929657 177.273132,242.009460 
	C167.108414,242.009460 157.472916,242.156250 147.845886,241.935135 
	C144.144012,241.850113 143.355453,243.446594 143.390915,246.680801 
	C143.557037,261.826202 143.601517,276.973022 143.656418,292.119476 
	C143.667816,295.261627 143.983276,298.505402 143.300537,301.507141 
	C142.918518,303.186859 140.774170,304.465729 139.423904,305.925232 
	C138.033188,304.619843 135.898529,303.542908 135.412384,301.959747 
	C134.504303,299.002625 133.006821,297.946838 130.058395,297.986603 
	C123.234772,298.078583 116.406631,298.068634 109.584404,297.916809 
	C106.934082,297.857849 106.198586,298.921783 106.065140,301.431671 
	C105.518692,311.709198 111.532341,321.656342 121.827217,325.095764 
	C137.687042,330.394409 153.241806,330.003418 168.173477,319.693268 
M979.289551,267.862183 
	C978.409180,270.109833 977.528870,272.357483 976.648499,274.605164 
	C974.822693,270.577271 974.009033,266.597473 973.490051,262.579590 
	C973.148254,259.932770 972.018616,258.890350 969.287170,258.946350 
	C961.962036,259.096588 954.631104,259.084351 947.304626,258.982727 
	C944.676025,258.946259 943.258850,259.642456 943.277222,262.566833 
	C943.403564,282.715851 943.452026,302.865356 943.552979,323.014526 
	C943.555359,323.476868 943.880371,323.937561 944.168762,324.699890 
	C956.681702,324.699890 969.262329,324.699890 982.318909,324.699890 
	C982.446167,322.792908 982.638794,321.013275 982.669861,319.230835 
	C982.759644,314.070740 982.476685,308.884125 982.899292,303.754028 
	C983.752258,293.399719 988.908264,288.635193 999.285645,287.995880 
	C1000.225525,287.937958 1001.152649,287.672028 1002.535522,287.421082 
	C1002.535522,278.095734 1002.665344,268.957977 1002.359924,259.834747 
	C1002.324524,258.775726 999.821350,256.860504 998.555969,256.934906 
	C990.738647,257.394836 984.027527,260.264923 979.289551,267.862183 
M1449.245239,242.370544 
	C1440.287354,242.370544 1431.329468,242.370544 1421.953979,242.370544 
	C1421.953979,247.753952 1422.039917,253.045029 1421.938843,258.332550 
	C1421.538208,279.307312 1421.153931,300.283051 1420.577515,321.253296 
	C1420.463135,325.414825 1421.431885,327.308594 1426.071533,327.072021 
	C1434.213379,326.656799 1442.388428,326.627014 1450.541382,326.808044 
	C1454.874390,326.904327 1456.018677,325.070984 1455.747925,321.119629 
	C1455.304443,314.647858 1454.981323,308.156982 1454.926636,301.671478 
	C1454.773560,283.521606 1454.718872,265.370117 1454.786743,247.219894 
	C1454.799561,243.788452 1454.203735,241.610321 1449.245239,242.370544 
M1066.730225,316.476440 
	C1066.423096,294.023773 1066.130005,271.570923 1065.802856,249.118561 
	C1065.644775,238.262024 1065.617920,238.426010 1054.720703,238.569427 
	C1050.881592,238.619949 1050.022095,240.063889 1050.015991,243.610458 
	C1049.995239,255.582718 1049.591553,267.553680 1049.448242,279.526489 
	C1049.269043,294.497009 1049.282593,309.470215 1049.033569,324.439270 
	C1048.970093,328.262238 1050.351562,329.753723 1054.195801,329.924225 
	C1066.991089,330.491821 1067.002075,330.578033 1066.762573,317.961517 
	C1066.759399,317.795197 1066.753418,317.628937 1066.730225,316.476440 
z"/>
<path fill="#EFF6EB" opacity="1.000000" stroke="none" 
	d="
M612.871521,310.990906 
	C612.865906,304.495453 612.914307,298.496887 612.819336,292.500580 
	C612.793396,290.863312 612.719788,289.021118 611.967346,287.660522 
	C611.254517,286.371796 609.437195,284.626465 608.439209,284.818207 
	C607.013123,285.092194 605.489441,286.743042 604.754395,288.186340 
	C604.053772,289.562042 604.178528,291.424835 604.169128,293.074799 
	C604.118958,301.904541 603.902039,310.743744 604.235779,319.561005 
	C604.407227,324.091461 602.788452,325.045105 598.515503,325.123596 
	C582.421936,325.419434 566.336914,326.174408 550.248108,326.741974 
	C548.750732,326.794769 547.248901,326.764862 545.750244,326.728729 
	C537.403809,326.527527 537.257263,326.555969 535.438171,318.515961 
	C534.638672,314.982330 533.153137,313.419006 529.345215,313.737579 
	C525.041992,314.097626 520.669312,314.130707 516.363708,313.809967 
	C512.433411,313.517212 510.798309,315.063568 509.879974,318.786438 
	C507.872223,326.925629 507.690399,326.881989 499.362823,326.883942 
	C491.903320,326.885712 484.443787,326.884338 476.197021,326.884338 
	C476.693146,324.439758 476.901703,322.539612 477.468048,320.752869 
	C485.367065,295.833313 493.364594,270.944855 501.188934,246.002014 
	C502.180908,242.839752 503.869415,242.002151 506.973419,242.041351 
	C517.633789,242.175980 528.301453,242.216370 538.957520,241.945297 
	C542.660828,241.851074 544.280579,243.220276 545.350037,246.610077 
	C551.762817,266.937439 558.338562,287.213379 564.881165,307.499664 
	C565.515320,309.466187 566.295959,311.385468 567.008606,313.326691 
	C567.469788,313.264618 567.930908,313.202576 568.392090,313.140533 
	C568.392090,295.344086 568.392090,277.547638 568.392090,259.041565 
	C578.464417,259.041565 587.725281,258.955231 596.979370,259.167603 
	C597.966431,259.190216 599.287903,260.793030 599.799377,261.951843 
	C600.793335,264.204010 601.322266,266.661407 602.223938,269.625824 
	C607.845947,263.847534 611.859863,256.672333 620.991821,256.625580 
	C630.050171,256.579254 635.034729,262.505219 640.905029,269.433441 
	C642.455566,267.554504 643.744812,265.677826 645.338379,264.110657 
	C658.634888,251.034515 679.030151,256.343231 683.740540,274.335449 
	C685.152771,279.729614 685.420044,285.504547 685.592529,291.124054 
	C685.883850,300.611664 685.697815,310.114502 685.670349,319.610779 
	C685.665649,321.231384 685.451111,322.851410 685.315247,324.723816 
	C674.305176,324.723816 663.702332,324.723816 652.556335,324.723816 
	C652.403809,322.521393 652.144775,320.420471 652.132507,318.318085 
	C652.083008,309.821564 652.188721,301.323486 652.068665,292.828369 
	C652.021118,289.468262 652.708191,284.766998 647.744202,284.836212 
	C643.271973,284.898529 643.648804,289.349976 643.615479,292.624634 
	C643.525574,301.453766 643.599121,310.284393 643.563782,319.114288 
	C643.556580,320.906647 643.356140,322.698212 643.214478,324.978027 
	C633.865479,324.978027 624.898193,325.092377 615.942322,324.824219 
	C614.897095,324.792969 613.207153,322.740387 613.042297,321.466187 
	C612.617920,318.187897 612.882385,314.820465 612.871521,310.990906 
M521.872009,261.503784 
	C519.101807,272.740814 516.331543,283.977875 513.456787,295.638977 
	C519.889343,295.638977 525.281067,295.638977 532.057068,295.638977 
	C529.458740,283.712921 527.013672,272.418732 524.448547,261.151825 
	C524.387451,260.883331 522.982178,260.920868 521.872009,261.503784 
z"/>
<path fill="#EEF6EB" opacity="1.000000" stroke="none" 
	d="
M1289.376465,305.238037 
	C1296.991699,284.563690 1304.555542,264.286102 1311.847290,243.911163 
	C1313.190308,240.158356 1314.969360,238.489746 1319.035156,238.913422 
	C1322.468994,239.271240 1325.969849,238.987106 1330.207031,238.987106 
	C1329.797729,241.229477 1329.693115,242.986588 1329.150513,244.595993 
	C1320.692993,269.676788 1312.235596,294.757965 1303.646362,319.793854 
	C1300.692749,328.403381 1292.602173,331.814911 1283.866333,328.702484 
	C1281.314331,327.793243 1278.544312,327.148102 1275.850708,327.053223 
	C1269.363525,326.824921 1262.859009,326.873688 1256.368286,327.054535 
	C1253.270142,327.140808 1251.446167,325.988037 1250.161255,323.192505 
	C1247.336792,317.047546 1244.287231,311.006012 1240.724487,303.677460 
	C1237.882202,309.412567 1235.362915,313.838348 1233.452026,318.512817 
	C1230.888306,324.784485 1227.201172,327.800537 1219.830933,326.956146 
	C1212.172363,326.078735 1204.335083,326.760620 1195.455566,326.760620 
	C1196.935547,323.782806 1197.695923,321.843475 1198.791016,320.116272 
	C1205.567139,309.428223 1212.313354,298.718018 1219.312866,288.176697 
	C1221.265137,285.236786 1221.185059,283.061188 1219.430176,280.057556 
	C1212.306396,267.864258 1205.470215,255.502975 1197.924561,242.134689 
	C1204.416748,242.134689 1210.280029,242.085373 1216.141724,242.156921 
	C1218.802124,242.189407 1221.549683,242.973846 1224.100830,242.525192 
	C1230.773315,241.351776 1233.750000,244.888580 1235.843994,250.423599 
	C1237.580933,255.014786 1239.775513,259.432800 1242.274170,265.070831 
	C1245.430298,258.335541 1248.191895,252.886276 1250.538574,247.263870 
	C1251.882935,244.042526 1253.903809,242.635361 1257.317261,242.660858 
	C1266.731934,242.731125 1276.147461,242.685165 1286.284180,242.685165 
	C1285.189697,244.831619 1284.357910,246.737503 1283.294434,248.503754 
	C1276.686523,259.477997 1269.928589,270.363953 1263.489014,281.435394 
	C1262.522705,283.096954 1262.027588,286.150604 1262.905884,287.587494 
	C1269.068604,297.669556 1275.650391,307.495453 1282.092529,317.406921 
	C1282.457886,317.969116 1282.773071,318.563904 1283.815796,320.349213 
	C1285.956177,314.520172 1287.593628,310.060730 1289.376465,305.238037 
z"/>
<path fill="#EFF6EB" opacity="1.000000" stroke="none" 
	d="
M1194.181519,255.590942 
	C1194.083740,269.380524 1193.948975,282.704956 1193.911011,296.029694 
	C1193.858887,314.326813 1185.901123,324.161987 1167.820679,327.541656 
	C1157.712158,329.431183 1147.576660,329.096893 1137.692749,325.959625 
	C1123.217163,321.364868 1115.322388,310.460815 1115.313721,295.282288 
	C1115.304688,279.620422 1115.394897,263.957520 1115.226196,248.297394 
	C1115.179199,243.935287 1116.431152,241.893219 1121.161987,242.082291 
	C1128.313599,242.368088 1135.492310,242.329269 1142.646606,242.072876 
	C1147.077515,241.914093 1148.401733,243.738586 1148.361938,247.959091 
	C1148.217529,263.282196 1148.302856,278.607971 1148.385498,293.932251 
	C1148.398926,296.412262 1148.296509,299.128510 1149.249023,301.295502 
	C1150.056030,303.132019 1152.249390,305.415894 1153.942261,305.511932 
	C1155.665039,305.609680 1158.200806,303.645233 1159.150269,301.910400 
	C1160.265625,299.872314 1160.365112,297.109650 1160.370361,294.660034 
	C1160.403687,279.002747 1160.480347,263.340729 1160.113770,247.690292 
	C1159.998169,242.754410 1161.581665,241.285797 1166.349609,241.552170 
	C1173.992554,241.979141 1181.667969,242.032074 1189.324585,241.911880 
	C1193.232910,241.850510 1194.865234,243.122238 1194.389282,247.135788 
	C1194.076904,249.770081 1194.238403,252.460602 1194.181519,255.590942 
z"/>
<path fill="#EFF6EB" opacity="1.000000" stroke="none" 
	d="
M1366.329956,290.962097 
	C1366.541504,294.604828 1366.202515,297.935883 1367.159424,300.839935 
	C1367.808472,302.809509 1370.216553,305.395020 1371.948730,305.481232 
	C1373.739014,305.570343 1376.259399,303.321228 1377.359497,301.448303 
	C1378.439941,299.609070 1378.397827,296.957214 1378.398560,294.661835 
	C1378.403564,279.012268 1378.472900,263.358429 1378.107178,247.715652 
	C1377.991821,242.786270 1379.598267,241.310364 1384.365479,241.572708 
	C1392.005371,241.993134 1399.677856,242.034622 1407.331299,241.907730 
	C1411.260254,241.842575 1412.509399,243.203003 1412.428223,247.154800 
	C1412.093140,263.465515 1412.013184,279.782104 1411.922729,296.097015 
	C1411.821899,314.280396 1404.109131,323.875671 1386.260010,327.413391 
	C1375.811890,329.484222 1365.359131,329.160675 1355.195435,325.791595 
	C1340.946289,321.068329 1333.339111,310.313660 1333.319824,295.278717 
	C1333.299683,279.623718 1333.416138,263.967560 1333.244629,248.314392 
	C1333.196899,243.964966 1334.387207,241.881104 1339.133423,242.067612 
	C1346.282715,242.348511 1353.456177,242.297363 1360.609985,242.079971 
	C1365.001465,241.946487 1366.385620,243.812485 1366.344238,248.010529 
	C1366.204468,262.161865 1366.315918,276.315674 1366.329956,290.962097 
z"/>
<path fill="#EEF6EB" opacity="1.000000" stroke="none" 
	d="
M820.450684,262.583313 
	C820.406555,256.252777 820.474548,249.918655 820.270996,243.593262 
	C820.169373,240.436111 821.556885,239.593491 824.445984,239.632614 
	C832.611084,239.743179 840.780701,239.774445 848.944336,239.618134 
	C852.301453,239.553833 853.676697,240.577271 853.659973,244.158127 
	C853.540100,269.824097 853.549316,295.490997 853.625916,321.157257 
	C853.636169,324.604889 852.401245,325.942047 848.922424,325.784180 
	C844.265442,325.572845 839.591187,325.700195 834.924927,325.743195 
	C829.448975,325.793610 823.446716,327.032593 822.013306,318.912231 
	C820.323242,319.934113 819.164307,320.546173 818.099060,321.292145 
	C800.560242,333.575073 780.051941,325.864105 775.757324,305.003479 
	C773.080078,291.999298 775.569153,279.499634 781.669922,267.730347 
	C787.823303,255.859299 800.923462,254.656265 811.058289,258.942047 
	C813.799011,260.101044 816.286377,261.859192 819.414429,263.521301 
	C820.109497,263.327942 820.280090,262.955627 820.450684,262.583313 
M817.605591,309.128601 
	C823.170349,303.493347 823.855957,285.941040 818.738403,279.717499 
	C816.677124,277.210693 814.700195,277.169861 812.699707,279.880463 
	C808.463562,285.620361 807.800171,300.902008 811.943787,306.608734 
	C812.984558,308.042084 815.272034,308.570221 817.605591,309.128601 
z"/>
<path fill="#EFF6EB" opacity="1.000000" stroke="none" 
	d="
M307.273651,269.509155 
	C303.550323,268.529419 301.221771,269.763885 300.573608,273.138062 
	C299.907990,276.603027 302.091248,278.630585 305.171326,279.116974 
	C312.393646,280.257446 319.675812,281.015167 326.926453,281.982574 
	C329.066284,282.268005 331.213776,282.610107 333.303253,283.140900 
	C350.356049,287.472809 350.954193,304.651794 343.447784,313.794006 
	C339.300812,318.844757 334.173920,322.393188 327.871033,324.094666 
	C311.192749,328.597046 294.597229,328.332642 278.263702,322.578369 
	C274.873077,321.383850 271.358673,319.651306 268.806366,317.217560 
	C266.274811,314.803650 264.885437,311.191864 262.995117,308.105438 
	C263.392426,307.633209 263.789703,307.160980 264.187012,306.688751 
	C274.948395,306.688751 285.710541,306.633820 296.469879,306.781677 
	C297.445923,306.795074 298.786804,307.906158 299.302673,308.861511 
	C301.294037,312.549622 304.607117,313.566162 308.180481,312.812012 
	C310.050598,312.417358 312.713135,310.521790 312.928955,309.006531 
	C313.149475,307.458374 311.098602,304.379913 309.545776,304.000031 
	C303.601898,302.545898 297.427826,302.068298 291.398376,300.918213 
	C285.861847,299.862122 280.231628,298.887817 274.947296,297.017059 
	C267.443909,294.360840 263.443909,288.517639 263.530182,280.517609 
	C263.617828,272.385590 266.208862,265.407379 274.521790,262.015198 
	C284.559998,257.918945 295.114960,256.528992 305.822144,256.852020 
	C313.273163,257.076782 320.848022,257.560822 328.074493,259.211853 
	C332.344574,260.187439 336.311340,263.323975 339.886902,266.155090 
	C341.678070,267.573334 342.288147,270.483307 344.211029,274.239624 
	C332.998322,274.239624 323.399200,274.510986 313.837860,274.030579 
	C311.702332,273.923279 309.699402,271.176941 307.273651,269.509155 
z"/>
<path fill="#EFF6EB" opacity="1.000000" stroke="none" 
	d="
M385.360931,326.905457 
	C377.849365,324.988190 370.618652,323.588196 363.801910,321.068329 
	C357.901855,318.887299 353.283630,314.808319 352.839050,306.682159 
	C360.438385,306.682159 367.667786,306.682465 374.897186,306.681946 
	C377.394714,306.681793 379.892334,306.690674 382.389771,306.675385 
	C385.199463,306.658203 387.673431,306.385101 389.230896,309.984650 
	C390.657471,313.281708 396.833649,314.257538 399.909515,312.127563 
	C401.050293,311.337616 402.369812,309.160126 402.014709,308.212219 
	C401.357880,306.458923 399.745789,304.186798 398.145264,303.820984 
	C392.338593,302.493652 386.352386,301.976837 380.471313,300.941833 
	C375.569672,300.079254 370.599243,299.301971 365.874054,297.807770 
	C356.994202,294.999847 352.539246,288.967560 352.478729,280.648743 
	C352.406494,270.721649 356.042938,263.978363 365.309875,261.514526 
	C374.998322,258.938629 385.153564,257.630554 395.182739,256.990692 
	C402.212067,256.542267 409.500183,257.553650 416.426086,259.052643 
	C420.595245,259.954987 424.593292,262.645020 428.086853,265.297455 
	C430.182037,266.888214 431.157135,269.954254 432.635651,272.357239 
	C432.311310,273.024872 431.986938,273.692535 431.662598,274.360168 
	C424.613617,274.360168 417.564392,274.392609 410.515686,274.348755 
	C405.823425,274.319580 401.103973,275.272583 397.547119,270.283539 
	C395.940521,268.030090 392.166107,268.247833 390.287628,271.272797 
	C388.508453,274.137817 389.221649,276.960907 392.335938,278.371826 
	C394.544342,279.372345 397.101288,279.715912 399.543732,280.066376 
	C406.942932,281.128204 414.468658,281.555817 421.752594,283.124481 
	C440.215820,287.100830 439.963715,306.121063 431.265900,315.305023 
	C422.629669,324.423950 411.359680,326.068665 399.803253,326.926117 
	C395.167938,327.270050 390.483582,326.952789 385.360931,326.905457 
z"/>
<path fill="#EFF6EB" opacity="1.000000" stroke="none" 
	d="
M905.889648,257.079834 
	C911.155151,258.798615 916.178589,260.110504 920.803467,262.274414 
	C932.416626,267.707977 937.475708,277.681458 938.164917,289.934174 
	C938.891479,302.851685 934.416016,313.386078 922.798584,320.285461 
	C905.757874,330.405609 883.563293,329.406891 868.238037,317.651947 
	C857.162598,309.156830 853.333862,289.002899 859.973267,276.679749 
	C867.238892,263.194275 878.895935,257.689789 893.490540,257.035614 
	C897.473999,256.857025 901.473816,257.042480 905.889648,257.079834 
M898.481689,276.881287 
	C897.091919,278.335632 894.591064,279.724182 894.500366,281.255432 
	C894.055237,288.773224 894.019714,296.340759 894.405273,303.861755 
	C894.487305,305.462799 896.926208,306.942993 898.279358,308.478851 
	C899.781006,306.929108 902.499756,305.437042 902.576416,303.819702 
	C902.933167,296.295776 902.721069,288.728149 902.304626,281.198700 
	C902.224487,279.750916 900.315369,278.404236 898.481689,276.881287 
z"/>
<path fill="#EFF6EB" opacity="1.000000" stroke="none" 
	d="
M699.336792,282.325073 
	C697.091064,282.325897 695.295837,282.325897 693.583984,282.325897 
	C692.510925,274.547791 696.488831,266.238068 703.493469,262.749817 
	C718.848511,255.103149 734.945312,254.712204 751.029541,259.839294 
	C761.034119,263.028412 765.234924,271.534729 766.722107,281.207428 
	C767.701233,287.575531 767.773865,294.106171 767.929993,300.571808 
	C768.121155,308.490356 767.975525,316.417053 767.975525,325.355347 
	C764.523804,325.355347 759.789734,325.355621 755.055664,325.355255 
	C753.057800,325.355103 751.059875,325.366669 749.062134,325.350342 
	C743.659363,325.306183 737.324707,326.975281 737.208984,317.902313 
	C728.508240,324.723022 719.403137,327.341309 709.466858,326.909698 
	C702.431396,326.604065 696.658875,323.567810 692.600708,317.653503 
	C684.261780,305.500336 691.359375,291.643646 706.725769,290.083130 
	C713.834106,289.361267 720.963623,288.821320 728.054016,287.957001 
	C734.059814,287.224854 736.757751,283.386871 734.883972,277.800812 
	C734.274231,275.982971 732.018677,273.933838 730.205017,273.578949 
	C728.999268,273.342987 726.067932,275.823578 725.944702,277.262634 
	C725.516785,282.258087 722.649902,282.517670 718.764893,282.388947 
	C712.445190,282.179504 706.113708,282.327271 699.336792,282.325073 
M725.997620,300.545593 
	C726.276794,302.921173 726.080933,305.511292 727.019348,307.589081 
	C727.553467,308.771484 730.118652,309.923645 731.448730,309.631287 
	C733.055603,309.278168 735.274414,307.559753 735.544983,306.116669 
	C736.157715,302.848389 735.737671,299.386505 735.737671,294.413422 
	C731.802673,296.707367 729.069763,298.300568 725.997620,300.545593 
z"/>
<path fill="#EFF6EB" opacity="1.000000" stroke="none" 
	d="
M256.946991,309.877594 
	C254.239563,316.328308 249.493469,319.808746 243.417358,322.088501 
	C230.469162,326.946747 217.449081,328.992371 203.897385,324.722931 
	C182.861588,318.095642 174.545776,293.288818 185.664017,274.131805 
	C197.827606,253.173645 233.903641,251.501709 250.235229,268.049927 
	C255.982666,273.873596 258.738098,281.440857 259.531555,289.651764 
	C259.855469,293.004211 258.369904,293.961609 255.183762,293.924530 
	C244.021408,293.794678 232.856537,293.882263 221.692612,293.886932 
	C219.721573,293.887756 217.750534,293.887054 214.564163,293.887054 
	C215.344833,298.494049 215.696899,302.547699 216.845688,306.361298 
	C217.293991,307.849457 219.449326,309.562805 220.987518,309.734192 
	C222.089691,309.856995 224.317413,307.734650 224.554749,306.357513 
	C225.427917,301.290894 228.547775,300.798553 232.819778,300.924622 
	C241.282761,301.174316 249.758301,300.998383 259.246277,300.998383 
	C258.412018,304.278351 257.745758,306.897736 256.946991,309.877594 
M227.699142,279.945923 
	C226.285965,277.100159 225.904800,272.998688 221.353592,273.561127 
	C217.996429,273.975983 215.373123,280.000885 215.720291,285.627441 
	C219.914154,285.627441 224.089142,285.627441 228.580460,285.627441 
	C228.310608,283.619568 228.113708,282.154480 227.699142,279.945923 
z"/>
<path fill="#EFF6EB" opacity="1.000000" stroke="none" 
	d="
M167.891693,319.914185 
	C153.241806,330.003418 137.687042,330.394409 121.827217,325.095764 
	C111.532341,321.656342 105.518692,311.709198 106.065140,301.431671 
	C106.198586,298.921783 106.934082,297.857849 109.584404,297.916809 
	C116.406631,298.068634 123.234772,298.078583 130.058395,297.986603 
	C133.006821,297.946838 134.504303,299.002625 135.412384,301.959747 
	C135.898529,303.542908 138.033188,304.619843 139.423904,305.925232 
	C140.774170,304.465729 142.918518,303.186859 143.300537,301.507141 
	C143.983276,298.505402 143.667816,295.261627 143.656418,292.119476 
	C143.601517,276.973022 143.557037,261.826202 143.390915,246.680801 
	C143.355453,243.446594 144.144012,241.850113 147.845886,241.935135 
	C157.472916,242.156250 167.108414,242.009460 177.273132,242.009460 
	C177.273132,245.929657 177.295166,249.372681 177.269318,252.815338 
	C177.153122,268.294769 176.924789,283.774170 176.938660,299.253418 
	C176.945953,307.408478 174.086731,314.162689 167.891693,319.914185 
z"/>
<path fill="#EEF6EB" opacity="1.000000" stroke="none" 
	d="
M979.469360,267.542114 
	C984.027527,260.264923 990.738647,257.394836 998.555969,256.934906 
	C999.821350,256.860504 1002.324524,258.775726 1002.359924,259.834747 
	C1002.665344,268.957977 1002.535522,278.095734 1002.535522,287.421082 
	C1001.152649,287.672028 1000.225525,287.937958 999.285645,287.995880 
	C988.908264,288.635193 983.752258,293.399719 982.899292,303.754028 
	C982.476685,308.884125 982.759644,314.070740 982.669861,319.230835 
	C982.638794,321.013275 982.446167,322.792908 982.318909,324.699890 
	C969.262329,324.699890 956.681702,324.699890 944.168762,324.699890 
	C943.880371,323.937561 943.555359,323.476868 943.552979,323.014526 
	C943.452026,302.865356 943.403564,282.715851 943.277222,262.566833 
	C943.258850,259.642456 944.676025,258.946259 947.304626,258.982727 
	C954.631104,259.084351 961.962036,259.096588 969.287170,258.946350 
	C972.018616,258.890350 973.148254,259.932770 973.490051,262.579590 
	C974.009033,266.597473 974.822693,270.577271 976.648499,274.605164 
	C977.528870,272.357483 978.409180,270.109833 979.469360,267.542114 
z"/>
<path fill="#EEF6EB" opacity="1.000000" stroke="none" 
	d="
M1449.708252,242.332397 
	C1454.203735,241.610321 1454.799561,243.788452 1454.786743,247.219894 
	C1454.718872,265.370117 1454.773560,283.521606 1454.926636,301.671478 
	C1454.981323,308.156982 1455.304443,314.647858 1455.747925,321.119629 
	C1456.018677,325.070984 1454.874390,326.904327 1450.541382,326.808044 
	C1442.388428,326.627014 1434.213379,326.656799 1426.071533,327.072021 
	C1421.431885,327.308594 1420.463135,325.414825 1420.577515,321.253296 
	C1421.153931,300.283051 1421.538208,279.307312 1421.938843,258.332550 
	C1422.039917,253.045029 1421.953979,247.753952 1421.953979,242.370544 
	C1431.329468,242.370544 1440.287354,242.370544 1449.708252,242.332397 
z"/>
<path fill="#EDF5E9" opacity="1.000000" stroke="none" 
	d="
M1066.739502,316.969543 
	C1066.753418,317.628937 1066.759399,317.795197 1066.762573,317.961517 
	C1067.002075,330.578033 1066.991089,330.491821 1054.195801,329.924225 
	C1050.351562,329.753723 1048.970093,328.262238 1049.033569,324.439270 
	C1049.282593,309.470215 1049.269043,294.497009 1049.448242,279.526489 
	C1049.591553,267.553680 1049.995239,255.582718 1050.015991,243.610458 
	C1050.022095,240.063889 1050.881592,238.619949 1054.720703,238.569427 
	C1065.617920,238.426010 1065.644775,238.262024 1065.802856,249.118561 
	C1066.130005,271.570923 1066.423096,294.023773 1066.739502,316.969543 
z"/>
<path fill="#83AA87" opacity="1.000000" stroke="none" 
	d="
M522.037964,261.159729 
	C522.982178,260.920868 524.387451,260.883331 524.448547,261.151825 
	C527.013672,272.418732 529.458740,283.712921 532.057068,295.638977 
	C525.281067,295.638977 519.889343,295.638977 513.456787,295.638977 
	C516.331543,283.977875 519.101807,272.740814 522.037964,261.159729 
z"/>
<path fill="#83AA87" opacity="1.000000" stroke="none" 
	d="
M817.296021,309.321472 
	C815.272034,308.570221 812.984558,308.042084 811.943787,306.608734 
	C807.800171,300.902008 808.463562,285.620361 812.699707,279.880463 
	C814.700195,277.169861 816.677124,277.210693 818.738403,279.717499 
	C823.855957,285.941040 823.170349,303.493347 817.296021,309.321472 
z"/>
<path fill="#7CA982" opacity="1.000000" stroke="none" 
	d="
M820.223022,262.820374 
	C820.280090,262.955627 820.109497,263.327942 819.747070,263.623047 
	C819.701965,263.383057 819.848694,263.220276 820.223022,262.820374 
z"/>
<path fill="#83AA87" opacity="1.000000" stroke="none" 
	d="
M898.865906,276.946106 
	C900.315369,278.404236 902.224487,279.750916 902.304626,281.198700 
	C902.721069,288.728149 902.933167,296.295776 902.576416,303.819702 
	C902.499756,305.437042 899.781006,306.929108 898.279358,308.478851 
	C896.926208,306.942993 894.487305,305.462799 894.405273,303.861755 
	C894.019714,296.340759 894.055237,288.773224 894.500366,281.255432 
	C894.591064,279.724182 897.091919,278.335632 898.865906,276.946106 
z"/>
<path fill="#83AA87" opacity="1.000000" stroke="none" 
	d="
M726.167236,300.219666 
	C729.069763,298.300568 731.802673,296.707367 735.737671,294.413422 
	C735.737671,299.386505 736.157715,302.848389 735.544983,306.116669 
	C735.274414,307.559753 733.055603,309.278168 731.448730,309.631287 
	C730.118652,309.923645 727.553467,308.771484 727.019348,307.589081 
	C726.080933,305.511292 726.276794,302.921173 726.167236,300.219666 
z"/>
<path fill="#83AA87" opacity="1.000000" stroke="none" 
	d="
M227.807983,280.317688 
	C228.113708,282.154480 228.310608,283.619568 228.580460,285.627441 
	C224.089142,285.627441 219.914154,285.627441 215.720291,285.627441 
	C215.373123,280.000885 217.996429,273.975983 221.353592,273.561127 
	C225.904800,272.998688 226.285965,277.100159 227.807983,280.317688 
z"/>
</svg>